<?xml version="1.0" encoding="UTF-8"?>
<svg id="Layer_1" data-name="Layer 1" xmlns="http://www.w3.org/2000/svg" viewBox="0 0 128 128">
  <defs>
    <style>
      .cls-1 {
        fill: #fff;
      }
    </style>
  </defs>
  <path class="cls-1" d="M60.17,114c-3.28,0-5.94-2.67-5.94-5.94v-2.11c0-3.28,2.66-5.94,5.94-5.94h5.19c3.01,0,5.55,2.25,5.9,5.24l.03,.28,.28-.02c6.1-.34,10.91-2.51,14.29-6.45,1.55-1.8,2.46-3.62,2.96-4.83l.11-.28-.28-.11c-2.15-.88-3.6-3.02-3.6-5.34v-30.21c0-3.18,2.58-5.76,5.76-5.76,2.77,0,5.15,1.97,5.66,4.69l.07,.39,.36-.18c.55-.27,1.15-.45,1.76-.54l.26-.04v-5.36c0-19.09-15.53-34.62-34.62-34.62S29.68,32.42,29.68,51.51v5.45l.23,.06c.41,.1,.8,.24,1.17,.43l.36,.18,.07-.39c.51-2.72,2.89-4.69,5.66-4.69,3.18,0,5.76,2.58,5.76,5.76v30.21c0,3.18-2.58,5.76-5.76,5.76-2.77,0-5.15-1.97-5.66-4.69l-.07-.39-.36,.18c-.78,.39-1.66,.59-2.54,.59h-1.85c-3.18,0-5.76-2.58-5.76-5.76v-21.58c0-3.12,2.44-5.65,5.57-5.76h.29v-5.34c0-10.02,3.9-19.44,10.99-26.53,7.08-7.08,16.51-10.99,26.53-10.99s19.44,3.9,26.53,10.99c7.09,7.09,10.99,16.51,10.99,26.53v5.36l.26,.04c2.84,.39,4.98,2.84,4.98,5.71v21.58c0,3.18-2.58,5.76-5.76,5.76h-1.85c-.89,0-1.74-.2-2.54-.59l-.36-.18-.07,.39c-.42,2.25-2.14,4.04-4.38,4.55l-.16,.04-.05,.16c-.45,1.33-1.54,3.94-3.74,6.53-2.71,3.2-7.79,7.11-16.59,7.56h-.26s-.03,.27-.03,.27c-.31,2.99-2.91,5.33-5.91,5.33h-5.19Zm0-11.1c-1.68,0-3.05,1.37-3.05,3.05v2.11c0,1.68,1.37,3.05,3.05,3.05h5.19c1.68,0,3.05-1.37,3.05-3.05v-2.11c0-1.68-1.37-3.05-3.05-3.05h-5.19Zm30.65-47.48c-1.58,0-2.87,1.29-2.87,2.87v30.21c0,1.58,1.29,2.87,2.87,2.87s2.87-1.29,2.87-2.87v-30.21c0-1.58-1.29-2.87-2.87-2.87Zm-53.64,0c-1.58,0-2.87,1.29-2.87,2.87v30.21c0,1.58,1.29,2.87,2.87,2.87s2.87-1.29,2.87-2.87v-30.21c0-1.58-1.29-2.87-2.87-2.87Zm62.27,4.32c-1.58,0-2.87,1.29-2.87,2.87v21.58c0,1.58,1.29,2.87,2.87,2.87h1.85c1.58,0,2.87-1.29,2.87-2.87v-21.58c0-1.58-1.29-2.87-2.87-2.87h-1.85Zm-72.75,0c-1.58,0-2.87,1.29-2.87,2.87v21.58c0,1.58,1.29,2.87,2.87,2.87h1.85c1.58,0,2.87-1.29,2.87-2.87v-21.58c0-1.58-1.29-2.87-2.87-2.87h-1.85Z"/>
</svg>