<?xml version="1.0" encoding="UTF-8"?>
<svg id="Layer_1" data-name="Layer 1" xmlns="http://www.w3.org/2000/svg" viewBox="0 0 128 128">
  <defs>
    <style>
      .cls-1 {
        fill: #fff;
      }
    </style>
  </defs>
  <path class="cls-1" d="M107.15,61.79c-.02-.12-.07-.24-.1-.36-.06-.25-.13-.49-.22-.73-.05-.13-.12-.25-.19-.38-.1-.21-.2-.42-.32-.61-.08-.12-.17-.23-.26-.35-.13-.18-.27-.36-.42-.53-.1-.11-.21-.2-.32-.3-.16-.15-.33-.3-.5-.43-.12-.09-.25-.17-.38-.25-.18-.12-.37-.23-.56-.32-.14-.07-.29-.13-.44-.19-.2-.08-.39-.15-.6-.2-.16-.05-.33-.08-.5-.12-.3-.06-.6-.11-.92-.12v-5.03c0-10.08-3.93-19.55-11.05-26.68-7.05-7.05-16.41-10.95-26.37-11.03-9.96,.08-19.32,3.98-26.37,11.03-7.13,7.13-11.05,16.6-11.05,26.68v5.03c-.31,.01-.62,.07-.92,.12-.17,.03-.34,.07-.5,.12-.2,.06-.4,.13-.6,.2-.15,.06-.3,.12-.44,.19-.19,.1-.38,.21-.56,.32-.13,.08-.26,.16-.38,.25-.18,.13-.34,.28-.5,.43-.11,.1-.22,.2-.32,.3-.15,.16-.29,.34-.42,.53-.09,.12-.18,.23-.26,.35-.12,.19-.22,.4-.32,.61-.06,.13-.13,.25-.19,.38-.09,.23-.16,.48-.22,.73-.03,.12-.08,.23-.1,.36-.07,.37-.11,.76-.11,1.16v21.53c0,3.34,2.71,6.05,6.05,6.05h1.85c.93,0,1.84-.21,2.67-.62,.06,.33,.16,.65,.27,.96,.03,.07,.06,.14,.09,.21,.1,.24,.21,.47,.33,.69,.04,.07,.08,.13,.12,.2,.14,.22,.29,.43,.45,.63,.04,.05,.08,.1,.13,.15,.19,.21,.39,.41,.6,.6,.03,.03,.06,.06,.1,.09,.51,.42,1.08,.75,1.7,.99,.1,.04,.2,.06,.3,.09,.58,.19,1.2,.3,1.84,.3,.82,0,1.6-.17,2.31-.46,.08-.03,.15-.08,.23-.11,.24-.11,.47-.24,.69-.38,.12-.08,.23-.16,.35-.24,.16-.12,.32-.25,.47-.38,.12-.11,.24-.21,.34-.33,.14-.15,.26-.31,.38-.47,.16-.2,.3-.41,.43-.63,.1-.17,.2-.35,.29-.53,.07-.14,.12-.29,.17-.44,.07-.2,.14-.4,.19-.61,.03-.13,.07-.26,.09-.39,.06-.35,.11-.71,.11-1.07v-30.14c0-3.34-2.71-6.05-6.05-6.05-.37,0-.73,.03-1.08,.1-2.45,.44-4.4,2.37-4.87,4.83,0,0-.02,0-.02,0-.34-.17-.71-.29-1.08-.39-.25-.07-.49-.13-.75-.16v-5.08c0-18.88,15.36-34.24,34.24-34.24,.1,0,.2,.01,.31,.02,.1,0,.2-.02,.31-.02,18.88,0,34.24,15.36,34.24,34.24v5.08c-.25,.03-.5,.1-.75,.16-.37,.1-.73,.22-1.08,.39,0,0-.02,0-.03,0-.46-2.47-2.41-4.39-4.87-4.83-.35-.06-.71-.1-1.08-.1-3.33,0-6.05,2.71-6.05,6.05v30.14c0,.37,.05,.72,.11,1.07,.02,.13,.06,.26,.09,.39,.05,.21,.12,.41,.19,.61,.05,.15,.11,.3,.17,.44,.08,.18,.19,.36,.29,.53,.13,.22,.27,.43,.43,.63,.12,.16,.25,.32,.38,.47,.11,.11,.23,.22,.34,.33,.15,.14,.3,.26,.47,.38,.11,.08,.23,.17,.35,.24,.22,.14,.45,.26,.69,.38,.08,.04,.15,.08,.23,.11,.71,.3,1.49,.46,2.31,.46,.64,0,1.26-.12,1.84-.3,.1-.03,.2-.06,.3-.09,.62-.24,1.2-.57,1.7-.99,.03-.03,.07-.06,.1-.09,.21-.18,.41-.38,.6-.6,.04-.05,.08-.1,.13-.15,.16-.2,.32-.41,.45-.63,.04-.07,.08-.13,.12-.2,.13-.22,.24-.46,.33-.69,.03-.07,.06-.14,.09-.21,.11-.31,.21-.63,.27-.96,.83,.41,1.74,.62,2.67,.62h1.85c3.34,0,6.05-2.71,6.05-6.05v-21.53c0-.4-.04-.78-.11-1.16Zm-72.47-3.15c0-1.41,1.15-2.56,2.56-2.56s2.56,1.15,2.56,2.56v30.14c0,1.41-1.15,2.56-2.56,2.56s-2.56-1.15-2.56-2.56v-30.14Zm-3.49,4.31v21.53c0,1.41-1.15,2.56-2.56,2.56h-1.85c-1.41,0-2.56-1.15-2.56-2.56v-21.53c0-1.41,1.15-2.56,2.56-2.56h1.85c1.41,0,2.56,1.15,2.56,2.56Zm62.13,25.84c0,1.41-1.15,2.56-2.56,2.56s-2.56-1.15-2.56-2.56v-30.14c0-1.41,1.15-2.56,2.56-2.56s2.56,1.15,2.56,2.56v30.14Zm10.46-4.31c0,1.41-1.15,2.56-2.56,2.56h-1.85c-1.41,0-2.56-1.15-2.56-2.56v-21.53c0-1.41,1.15-2.56,2.56-2.56h1.85c1.41,0,2.56,1.15,2.56,2.56v21.53Z"/>
  <path class="cls-1" d="M80.31,110.67h-14.57V28.44c1.91,.09,3.77,.33,5.58,.71,1.02,.22,1.98-.59,1.98-1.64h0c0-.77-.53-1.46-1.28-1.64-2.61-.59-5.29-.93-8.02-.96-2.74,.02-5.42,.36-8.02,.96-.76,.17-1.28,.86-1.28,1.64h0c0,1.05,.95,1.86,1.98,1.64,1.81-.38,3.68-.62,5.58-.71V110.67h-14.57c-.96,0-1.74,.78-1.74,1.74s.78,1.74,1.74,1.74h32.62c.96,0,1.74-.78,1.74-1.74s-.78-1.74-1.74-1.74Z"/>
</svg>