<?xml version="1.0" encoding="UTF-8"?>
<svg id="Layer_1" data-name="Layer 1" xmlns="http://www.w3.org/2000/svg" viewBox="0 0 128 128">
  <defs>
    <style>
      .cls-1 {
        fill: #fff;
      }
    </style>
  </defs>
  <path class="cls-1" d="M106.05,105.73v-31.51c0-2.08-1.7-3.78-3.78-3.78h-5.22V33.68c0-4.57-3.72-8.28-8.28-8.28h-10.27v-3.04c0-4.61-3.75-8.36-8.36-8.36h-12.49c-4.61,0-8.36,3.75-8.36,8.36v3.04h-10.04c-4.57,0-8.28,3.72-8.28,8.28v36.75h-5.27c-.08,0-.16,0-.24,0-1.84,0-3.38,1.44-3.5,3.28-.01,.15-.01,.31,0,.51v31.56c-.13,1.93,1.34,3.61,3.27,3.74,.08,0,.16,0,.23,0s.16,0,.28,0h4.55s.18,0,.18,0c.24,0,.49-.03,.78-.09l.52-.11,.26,.46c1.47,2.61,4.23,4.23,7.22,4.23h49.52c3.01,0,5.79-1.64,7.25-4.28l.27-.49,.54,.14c.36,.09,.66,.14,.94,.14h4.55c.08,0,.24,0,.24,0,1.84,0,3.38-1.44,3.5-3.28,.01-.15,.01-.31,0-.51Zm-75.09,.72h-5.94v-32.96h5.94v32.96ZM52.38,22.36c0-2.9,2.36-5.26,5.26-5.26h12.49c2.9,0,5.26,2.36,5.26,5.26v2.99h-23.01v-2.99Zm28.1,74.35v14.23H47.52v-14.17c-.18-2.19-.02-4.38,.47-6.52l.1-.44,.44-.1c1.56-.36,3.16-.54,4.75-.54,.59,0,1.18,.02,1.71,.07h17.95c.59-.05,1.18-.07,1.77-.07,1.6,0,3.2,.18,4.75,.54l.44,.1,.1,.44c.49,2.14,.65,4.34,.47,6.46Zm13.5,8.96c.18,2.72-1.89,5.09-4.61,5.27-.11,0-.22,.01-.33,.01s-.22,0-.28,0h-5.22v-14.23c0-9.94-.59-10.53-10.53-10.53h-18.01c-9.94,0-10.54,.59-10.54,10.53v14.23h-5.18c-.11,0-.22,0-.33,0-2.6,0-4.77-2.03-4.94-4.62-.01-.22-.01-.43,0-.61V62.73l1.08,.63c1.26,.73,2.69,1.12,4.14,1.12h9.72v7.47c0,.84,.69,1.53,1.53,1.53s1.53-.69,1.53-1.53v-7.47h23.95v7.47c0,.84,.69,1.53,1.53,1.53s1.53-.69,1.53-1.53v-7.47h9.72c1.45,0,2.88-.39,4.14-1.12l1.08-.63v42.93Zm0-71.98v22.46c.18,2.72-1.89,5.09-4.62,5.27-.11,0-.22,.01-.33,.01s-.22,0-.28,0h-9.72v-7.42c-.06-.84-.74-1.52-1.67-1.59-.73,0-1.34,.57-1.39,1.3,0,.06,0,.12,0,.23v7.47h-23.95v-7.42c-.06-.84-.74-1.52-1.67-1.59-.73,0-1.34,.57-1.39,1.3,0,.06,0,.12,0,.23v7.47h-9.68c-.11,0-.22,0-.33,0-2.6,0-4.77-2.03-4.94-4.67v-23.02c-.09-1.32,.35-2.6,1.22-3.59,.87-1,2.08-1.59,3.4-1.68,.11,0,.22-.01,.33-.01s.22,0,.28,0h49.47c.11,0,.22,0,.33,0,2.6,0,4.77,2.03,4.94,4.63,.01,.22,.01,.44,0,.61Zm9,72.76h-5.94v-32.96h5.94v32.96Z"/>
</svg>