<?xml version="1.0" encoding="UTF-8"?>
<svg id="Layer_1" data-name="Layer 1" xmlns="http://www.w3.org/2000/svg" viewBox="0 0 128 128">
  <defs>
    <style>
      .cls-1 {
        fill: #fff;
      }
    </style>
  </defs>
  <path class="cls-1" d="M95.4,95.17c-2.25,0-4.08-1.83-4.08-4.08v-12.05c0-2.25,1.83-4.08,4.08-4.08h4.14v-9.48l-.33-.06c-6.01-1.07-10.37-6.27-10.37-12.37,0-6.94,5.64-12.58,12.58-12.58s12.58,5.64,12.58,12.58c0,6.1-4.36,11.31-10.37,12.37l-.33,.06v9.48h4.14c2.25,0,4.08,1.83,4.08,4.08v12.05c0,2.25-1.83,4.08-4.08,4.08h-12.05Zm.2-17.75c-1,0-1.81,.81-1.81,1.81v11.66c0,1,.81,1.81,1.81,1.81h11.66c1,0,1.81-.81,1.81-1.81v-11.66c0-1-.81-1.81-1.81-1.81h-4.01v5.43c0,1-.82,1.82-1.82,1.82s-1.82-.82-1.82-1.82v-5.43h-4.01Zm5.83-33.25c-4.89,0-8.88,3.98-8.88,8.88s3.98,8.88,8.88,8.88,8.88-3.98,8.88-8.88-3.98-8.88-8.88-8.88Z"/>
  <path class="cls-1" d="M15.48,114c-.43,0-.84-.19-1.12-.52-.28-.33-.41-.76-.34-1.19l2.21-14.36-.03-.06c-.34-.68-.52-1.41-.52-2.18v-6.73c0-2.67,2.17-4.85,4.85-4.85h6.73c2.67,0,4.85,2.17,4.85,4.85v.2h3.77v-.2c0-2.67,2.17-4.85,4.85-4.85h6.73c2.67,0,4.85,2.17,4.85,4.85v.2h3.77v-6.93c0-2.67,2.17-4.85,4.85-4.85h6.73c2.67,0,4.85,2.17,4.85,4.85v11.34c.44,.8,.72,1.66,.86,2.55l2.49,16.16c.07,.43-.06,.86-.34,1.19-.28,.33-.69,.52-1.12,.52H15.48Zm57.14-2.96l-1.8-11.69-.27,.2c-.38,.29-.8,.52-1.25,.69h-3.56v3.22c0,.82-.66,1.48-1.48,1.48s-1.48-.66-1.48-1.48v-3.21h-3.49c-1.96-.71-3.23-2.54-3.23-4.56v-3.56h-3.77v3.56c0,2.02-1.27,3.85-3.16,4.55h-3.56v3.22c0,.82-.66,1.48-1.48,1.48s-1.48-.66-1.48-1.48v-3.21h-3.49c-1.96-.71-3.23-2.54-3.23-4.56v-3.56h-3.77v3.56c0,2.02-1.27,3.85-3.16,4.55h-3.56v3.22c0,.82-.66,1.48-1.48,1.48s-1.48-.66-1.48-1.48v-3.21h-3.48l-1.72,10.78h55.42Zm-11.73-30.68c-1.04,0-1.88,.84-1.88,1.88v13.46c0,1.04,.84,1.88,1.88,1.88h6.73c1.04,0,1.88-.84,1.88-1.88v-13.46c0-1.04-.84-1.88-1.88-1.88h-6.73Zm-20.18,6.73c-1.04,0-1.88,.84-1.88,1.88v6.73c0,1.04,.84,1.88,1.88,1.88h6.73c1.04,0,1.88-.84,1.88-1.88v-6.73c0-1.04-.84-1.88-1.88-1.88h-6.73Zm-20.18-.43c-1.04,0-1.88,.84-1.88,1.88v7.16c0,1.04,.84,1.88,1.88,1.88h6.73c1.04,0,1.88-.84,1.88-1.88v-7.16c0-1.04-.84-1.88-1.88-1.88h-6.73Z"/>
  <path class="cls-1" d="M22.73,70.42c-4.81,0-8.73-3.91-8.73-8.72v-23.98c0-4.81,3.92-8.72,8.73-8.72h.5l.05-.13c3.43-8.9,12.12-14.88,21.61-14.88s18.17,5.98,21.59,14.88l.05,.13h.52c4.81,0,8.73,3.91,8.73,8.72v23.98c0,4.81-3.92,8.72-8.73,8.72H22.73Zm-.74-38.21c-2.77,.37-4.85,2.74-4.85,5.51v23.98c0,3.08,2.51,5.58,5.6,5.58h44.33c3.08,0,5.58-2.5,5.58-5.58v-23.98c0-2.77-2.09-5.14-4.86-5.51l-.28-.04,.06,.28c.33,1.57,.49,3.15,.49,4.71,0,12.77-10.39,23.16-23.16,23.16s-23.16-10.39-23.16-23.16c0-1.53,.16-3.12,.48-4.71l.06-.28-.28,.04Zm24.61,24.62l.76-.1c7.99-1,14.69-6.92,16.66-14.72l.55-2.62h-8.77l-.21,.37c-1.05,2.34-3.38,3.87-5.94,3.87h-3.05v13.2Zm-21.03-16c.11,.69,.25,1.51,.51,2.31,2.34,7.3,8.76,12.63,16.35,13.58l.76,.1v-13.2h-3.06c-2.54,0-4.86-1.5-5.9-3.81l-.25-.43h-8.62l.23,1.44Zm12.99-8.67c-.92,.55-1.49,1.55-1.49,2.61v2.38c0,1.68,1.37,3.05,3.05,3.05h9.53c1.69,0,3.06-1.37,3.06-3.05v-2.38c0-1.06-.57-2.06-1.49-2.61l-.05-.03h-12.57l-.05,.03Zm26.03,3.81l-.02-.22c-.09-1.16-.28-2.33-.57-3.47-.33-1.28-.77-2.48-1.3-3.57-3.26-6.86-10.25-11.29-17.8-11.29s-14.54,4.43-17.82,11.29c-.53,1.11-.96,2.31-1.29,3.57-.3,1.17-.49,2.34-.58,3.47l-.02,.22h8.46v-1.2c0-.81,.15-1.61,.45-2.37,.58-1.49,1.7-2.71,3.14-3.43,.91-.45,1.88-.69,2.88-.69h9.53c1.01,0,1.98,.23,2.89,.69,1.43,.71,2.55,1.93,3.14,3.43,.3,.76,.45,1.55,.45,2.36v1.2h8.45Z"/>
</svg>