<?xml version="1.0" encoding="UTF-8"?>
<svg id="Layer_1" data-name="Layer 1" xmlns="http://www.w3.org/2000/svg" viewBox="0 0 128 128">
  <defs>
    <style>
      .cls-1 {
        fill: #fff;
      }
    </style>
  </defs>
  <path class="cls-1" d="M80.85,113.29l-1.85-4.14h-30.05l-1.85,4.14h-6.83v-4.39h-2.57v-.11c-1.97-.75-3.28-2.62-3.28-4.72V18.36c0-2.8,2.28-5.07,5.07-5.07h49.03c2.8,0,5.07,2.28,5.07,5.07V104.07c0,2.21-1.43,4.14-3.55,4.81h-2.3v4.4h-6.89ZM39.49,17.03c-.73,0-1.33,.6-1.33,1.33V104.07c0,.73,.6,1.33,1.33,1.33h49.03c.73,0,1.33-.6,1.33-1.33V18.36c0-.73-.6-1.33-1.33-1.33h-6.38l-4.25,4.51h-27.78l-4.25-4.51h-6.38Z"/>
  <g>
    <path class="cls-1" d="M64,102.48c-10.2,0-18.5-8.3-18.5-18.5s8.3-18.5,18.5-18.5,18.5,8.3,18.5,18.5-8.3,18.5-18.5,18.5Zm0-33.33c-8.18,0-14.83,6.65-14.83,14.83s6.65,14.83,14.83,14.83,14.83-6.65,14.83-14.83-6.65-14.83-14.83-14.83Z"/>
    <path class="cls-1" d="M64,62.43c-10.2,0-18.5-8.3-18.5-18.5s8.3-18.5,18.5-18.5,18.5,8.3,18.5,18.5-8.3,18.5-18.5,18.5Zm0-33.33c-8.18,0-14.83,6.65-14.83,14.83s6.65,14.83,14.83,14.83,14.83-6.65,14.83-14.83-6.65-14.83-14.83-14.83Z"/>
  </g>
</svg>