<?xml version="1.0" encoding="UTF-8"?>
<svg id="Layer_1" data-name="Layer 1" xmlns="http://www.w3.org/2000/svg" viewBox="0 0 128 128">
  <defs>
    <style>
      .cls-1 {
        fill: #fff;
      }
    </style>
  </defs>
  <path class="cls-1" d="M112.16,43.2c-1.19-1.2-2.78-1.85-4.46-1.85H20.3c-3.48,0-6.3,2.83-6.3,6.3v32.7c0,3.48,2.83,6.3,6.3,6.3H107.7c3.48,0,6.3-2.83,6.3-6.3V47.65c0-1.68-.65-3.26-1.84-4.45Zm-1.66,36.98c0,1.8-1.46,3.26-3.26,3.26H20.76c-1.8,0-3.26-1.46-3.26-3.26V47.82c0-1.8,1.46-3.26,3.26-3.26H107.24c1.8,0,3.26,1.46,3.26,3.26v32.36Z"/>
  <g>
    <path class="cls-1" d="M34.17,50.51h-8.74c-.69,0-1.25,.67-1.25,1.48s.56,1.48,1.25,1.48h8.74c.69,0,1.25-.67,1.25-1.48s-.56-1.48-1.25-1.48Z"/>
    <path class="cls-1" d="M42.5,53.48h8.74c.69,0,1.25-.67,1.25-1.48s-.56-1.48-1.25-1.48h-8.74c-.69,0-1.25,.67-1.25,1.48s.56,1.48,1.25,1.48Z"/>
    <path class="cls-1" d="M68.3,50.51h-8.74c-.69,0-1.25,.67-1.25,1.48s.56,1.48,1.25,1.48h8.74c.69,0,1.25-.67,1.25-1.48s-.56-1.48-1.25-1.48Z"/>
    <path class="cls-1" d="M85.5,50.51h-8.74c-.69,0-1.25,.67-1.25,1.48s.56,1.48,1.25,1.48h8.74c.69,0,1.25-.67,1.25-1.48s-.56-1.48-1.25-1.48Z"/>
    <path class="cls-1" d="M102.56,50.51h-8.74c-.69,0-1.25,.67-1.25,1.48s.56,1.48,1.25,1.48h8.74c.69,0,1.25-.67,1.25-1.48s-.56-1.48-1.25-1.48Z"/>
    <path class="cls-1" d="M34.17,62.52h-8.74c-.69,0-1.25,.67-1.25,1.48s.56,1.48,1.25,1.48h8.74c.69,0,1.25-.67,1.25-1.48s-.56-1.48-1.25-1.48Z"/>
    <path class="cls-1" d="M42.5,65.49h8.74c.69,0,1.25-.67,1.25-1.48s-.56-1.48-1.25-1.48h-8.74c-.69,0-1.25,.67-1.25,1.48s.56,1.48,1.25,1.48Z"/>
    <path class="cls-1" d="M68.3,62.52h-8.74c-.69,0-1.25,.67-1.25,1.48s.56,1.48,1.25,1.48h8.74c.69,0,1.25-.67,1.25-1.48s-.56-1.48-1.25-1.48Z"/>
    <path class="cls-1" d="M85.5,62.52h-8.74c-.69,0-1.25,.67-1.25,1.48s.57,1.48,1.25,1.48h8.74c.69,0,1.25-.67,1.25-1.48s-.56-1.48-1.25-1.48Z"/>
    <path class="cls-1" d="M102.56,62.52h-8.74c-.69,0-1.25,.67-1.25,1.48s.57,1.48,1.25,1.48h8.74c.69,0,1.25-.67,1.25-1.48s-.56-1.48-1.25-1.48Z"/>
    <path class="cls-1" d="M34.17,74.52h-8.74c-.69,0-1.25,.67-1.25,1.48s.56,1.48,1.25,1.48h8.74c.69,0,1.25-.67,1.25-1.48s-.56-1.48-1.25-1.48Z"/>
    <path class="cls-1" d="M68.43,74.52h-25.93c-.69,0-1.25,.67-1.25,1.48s.56,1.48,1.25,1.48h25.93c.69,0,1.25-.67,1.25-1.48s-.56-1.48-1.25-1.48Z"/>
    <path class="cls-1" d="M85.5,74.52h-8.74c-.69,0-1.25,.67-1.25,1.48s.57,1.48,1.25,1.48h8.74c.69,0,1.25-.67,1.25-1.48s-.56-1.48-1.25-1.48Z"/>
    <path class="cls-1" d="M102.56,74.52h-8.74c-.69,0-1.25,.67-1.25,1.48s.57,1.48,1.25,1.48h8.74c.69,0,1.25-.67,1.25-1.48s-.56-1.48-1.25-1.48Z"/>
  </g>
</svg>