<?xml version="1.0" encoding="UTF-8"?>
<svg id="Layer_1" data-name="Layer 1" xmlns="http://www.w3.org/2000/svg" viewBox="0 0 128 128">
  <defs>
    <style>
      .cls-1 {
        fill: none;
      }

      .cls-2 {
        fill: #fff;
      }
    </style>
  </defs>
  <path class="cls-1" d="M45.22,79.4c-.03,7.01-1.13,7.45,6.13,7.1,3.1,0,27.51-.01,29.91,0,.95-.04,1.48-.21,1.58-2.61-.01-.54,.03-4.05-.03-4.49-11.74-.01-25.87-.01-37.6,0Z"/>
  <path class="cls-1" d="M84.13,33.16l-2.27-.89c-.5-.19-1.19-.43-1.86-.66-.82-.29-1.51-.85-1.98-1.58-1.5-2.45-5.59-8.38-7.53-10.92-.56-.75-1.45-1.17-2.39-1.17h-8.22c-.98,0-1.91,.48-2.46,1.31-1.6,2.35-4.99,7.34-7.37,10.81-.59,.85-1.42,1.47-2.39,1.76-.5,.15-.98,.31-1.47,.45-.76,.29-1.51,.6-2.27,.89-1.66,.97-2.49,2.89-2.08,4.75,.91,3.54,1.82,7.08,2.73,10.62,2.69,9.25,5.38,18.49,8.07,27.74h9.7s3.39,0,3.39,0h0s9.64,0,9.64,0l8.32-26.92,2.55-11.44c.41-1.88-.44-3.79-2.1-4.75Z"/>
  <path class="cls-2" d="M85.3,30.46l-3.58-1.41-7.61-10.67c-1.26-2.42-3.77-3.95-6.51-3.95h-7.14c-2.7-.01-5.19,1.48-6.47,3.87l-7.64,10.74-3.59,1.41c-2.93,1.54-4.47,4.84-3.79,8.08,3.36,16,6.72,22.89,10.07,37.73h-3.77c-.35-.03-.66,0-.95,.06-1.63,.27-2.33,1.54-2.51,3.09v4.88s.03,0,.03,0c.21,4.74,3.26,5.31,4.61,5.31h15.9v9.64c-4.67,.52-8.87,3.14-12.08,6.52-.4-.12-.82-.2-1.26-.2-2.45,0-4.44,1.99-4.44,4.44s1.99,4.44,4.44,4.44,4.44-1.99,4.44-4.44c0-.42-.08-.81-.18-1.19-.03-.11-.07-.22-.1-.33-.03-.08-.05-.16-.08-.23-.08-.21-.18-.42-.3-.62,6.65-7.06,15.84-7.06,22.49,0-.19,.29-.33,.61-.44,.94-.04,.11-.07,.23-.1,.34-.02,.09-.05,.18-.07,.27-.04,.21-.06,.42-.06,.62,0,.07-.02,.14-.02,.21,0,2.45,1.99,4.44,4.44,4.44s4.44-1.99,4.44-4.44-1.99-4.44-4.44-4.44c-.43,0-.83,.08-1.23,.19-3.19-3.36-7.47-6.01-12.07-6.51v-9.64h15.9c1.33,0,4.29-.56,4.59-5.07v-5.32c-.21-1.47-.92-2.66-2.52-2.91-.28-.04-.57-.06-.89-.04h-3.82c3.38-14.84,6.75-21.73,10.13-37.72,.7-3.24-.84-6.56-3.79-8.1Zm-2.48,48.94c.06,.44,.01,3.95,.03,4.49-.1,2.41-.63,2.57-1.58,2.61-2.41-.01-26.82,0-29.91,0-7.26,.35-6.16-.09-6.13-7.1,11.74-.01,25.87-.01,37.6,0Zm3.4-41.49l-2.55,11.44-8.32,26.92h-9.64s-3.39,0-3.39,0h0s-9.7,0-9.7,0c-2.69-9.25-5.38-18.49-8.07-27.74-.91-3.54-1.82-7.08-2.73-10.62-.41-1.86,.43-3.79,2.08-4.75,.76-.29,1.51-.6,2.27-.89,.48-.15,.97-.31,1.47-.45,.97-.29,1.8-.91,2.39-1.76,2.38-3.48,5.77-8.47,7.37-10.81,.56-.82,1.48-1.31,2.46-1.31h8.22c.94,0,1.83,.43,2.39,1.17,1.94,2.54,6.03,8.47,7.53,10.92,.47,.73,1.16,1.29,1.98,1.58,.67,.23,1.36,.47,1.86,.66l2.27,.89c1.66,.97,2.51,2.88,2.1,4.75Z"/>
  <g>
    <path class="cls-1" d="M62.33,76.28h0s3.39,0,3.39,0h0s9.64,0,9.64,0l8.32-26.92,2.55-11.44c.41-1.88-.44-3.79-2.1-4.75l-2.27-.89c-.5-.19-1.19-.43-1.86-.66-.82-.29-1.51-.85-1.98-1.58-1.5-2.45-5.59-8.38-7.53-10.92-.56-.75-1.45-1.17-2.39-1.17h-8.22c-.98,0-1.91,.48-2.46,1.31-1.6,2.35-4.99,7.34-7.37,10.81-.59,.85-1.42,1.47-2.39,1.76-.5,.15-.98,.31-1.47,.45-.76,.29-1.51,.6-2.27,.89-1.66,.97-2.49,2.89-2.08,4.75,.91,3.54,1.82,7.08,2.73,10.62,2.69,9.25,5.38,18.49,8.07,27.74h9.7Z"/>
    <path class="cls-1" d="M82.82,79.4c-11.74-.01-25.87-.01-37.6,0-.03,7.01-1.13,7.45,6.13,7.1,3.1,0,27.51-.01,29.91,0,.95-.04,1.48-.21,1.58-2.61-.01-.54,.03-4.05-.03-4.49Z"/>
    <path class="cls-2" d="M95.2,61.69c-2.37,0-4.3,1.92-4.3,4.3v.56s-.01,12.56-.01,12.56c0,1.11-.9,2.01-2.01,2.01h-6.02v3.47h7.2c2.37,0,4.3-1.92,4.3-4.3v-5.32s.01-7.8,.01-7.8c0-1.11,.9-2.01,2.01-2.01h2.77c.96,0,1.74-.78,1.74-1.74h0c0-.96-.78-1.74-1.74-1.74h-3.95Z"/>
    <path class="cls-2" d="M32.8,61.69c2.37,0,4.3,1.92,4.3,4.3v.54s.01,.02,.01,.02v12.56c0,1.11,.9,2.01,2.01,2.01h6.02v3.47h-7.2c-2.37,0-4.3-1.92-4.3-4.3v-5.3s-.01-.02-.01-.02v-7.8c0-1.11-.9-2.01-2.01-2.01h-2.77c-.96,0-1.74-.78-1.74-1.74h0c0-.96,.78-1.74,1.74-1.74h3.95Z"/>
  </g>
</svg>