<?xml version="1.0" encoding="UTF-8"?>
<svg id="Layer_1" data-name="Layer 1" xmlns="http://www.w3.org/2000/svg" viewBox="0 0 128 128">
  <defs>
    <style>
      .cls-1 {
        fill: #fff;
      }
    </style>
  </defs>
  <path class="cls-1" d="M106.62,26.18H21.38c-4.07,0-7.38,3.31-7.38,7.38v44.65c0,4.07,3.31,7.38,7.38,7.38H61.04v12.77h-24.45c-.95,0-1.71,.77-1.71,1.71s.77,1.71,1.71,1.71h54.82c.95,0,1.71-.77,1.71-1.71s-.77-1.71-1.71-1.71h-24.04v-12.77h39.25c4.07,0,7.38-3.31,7.38-7.38V33.56c0-4.07-3.31-7.38-7.38-7.38Zm4.13,51.71c0,2.61-2.12,4.73-4.73,4.73H21.98c-2.61,0-4.73-2.12-4.73-4.73V33.87c0-2.61,2.12-4.73,4.73-4.73H106.01c2.61,0,4.73,2.12,4.73,4.73v44.02Z"/>
</svg>