<?xml version="1.0" encoding="UTF-8"?>
<svg id="Layer_1" data-name="Layer 1" xmlns="http://www.w3.org/2000/svg" viewBox="0 0 128 128">
  <defs>
    <style>
      .cls-1 {
        fill: #fff;
      }
    </style>
  </defs>
  <g>
    <path class="cls-1" d="M82.71,52.86c-.23-.91-1.17-1.46-2.08-1.23-.91,.23-1.46,1.17-1.23,2.08l1.56,6.05c.11,.44,.39,.81,.79,1.05,.27,.16,.56,.24,.87,.24,.14,0,.29-.02,.43-.05,.44-.11,.81-.39,1.04-.78,.23-.39,.3-.85,.18-1.29l-1.56-6.06Z"/>
    <path class="cls-1" d="M113.94,45.16l-.03-9.57c-.05-5.37-4.63-9.92-10-9.94-8.88,0-17.75,0-26.62-.02-8.87,0-17.75-.02-26.62-.02s-17.75,0-26.62,.04c-5.3,.05-9.86,4.57-9.94,9.88-.15,15.74-.09,31.74-.03,47.21l.03,9.57c.05,5.31,4.57,9.86,9.88,9.94,9.49,.09,19.77,.13,31.42,.13s23.59-.04,35.39-.09l13.18-.05c5.31-.05,9.86-4.57,9.94-9.88,.15-15.74,.09-31.74,.03-47.21Zm-3.66,46.58c-.06,3.71-3.37,7.04-7.08,7.12-10.49,.17-21.6,.25-33.97,.25h0c-15.36,0-30.96-.13-44.38-.25-3.78-.06-7.04-3.3-7.12-7.08-.21-14.02-.14-28.28-.06-42.07,.02-4.5,.05-9,.06-13.51,.04-3.87,3.34-7.16,7.22-7.17,8.68,0,17.37-.03,26.05-.05,8.68-.03,17.37-.05,26.05-.05,9.76,0,18.31,.03,26.11,.11,3.71,.06,7.04,3.37,7.12,7.08,.29,19.06,.16,37.93,0,55.62Z"/>
  </g>
  <path class="cls-1" d="M86.44,87.74c-5.94,0-11.12-4.02-12.6-9.78l-5.51-21.43c-1.79-6.95,2.41-14.07,9.37-15.86,1.07-.27,2.16-.41,3.25-.41,5.94,0,11.12,4.02,12.6,9.78l5.51,21.43c1.79,6.95-2.41,14.07-9.37,15.86-1.07,.27-2.16,.41-3.25,.41h0Zm-5.5-44.57c-.85,0-1.7,.11-2.52,.32-2.61,.67-4.81,2.32-6.19,4.65-1.38,2.33-1.76,5.05-1.09,7.66l5.51,21.43c1.15,4.47,5.18,7.6,9.8,7.6,.85,0,1.69-.11,2.52-.32,2.61-.67,4.81-2.32,6.18-4.65,1.38-2.33,1.76-5.05,1.09-7.66l-5.51-21.43c-1.15-4.47-5.18-7.6-9.8-7.6Z"/>
</svg>