<?xml version="1.0" encoding="UTF-8"?>
<svg id="Layer_1" data-name="Layer 1" xmlns="http://www.w3.org/2000/svg" viewBox="0 0 128 128">
  <defs>
    <style>
      .cls-1 {
        fill: #fff;
      }
    </style>
  </defs>
  <path class="cls-1" d="M89.99,29.02l.09-.55-26.06-4.45v-.02l-26.11,4.45,.09,.57h-.01l3.02,22.22v2.58l-1.48,25.15c0,13.69,11.2,25.26,24.88,25.03,13.31-.23,24.06-11.12,24.06-24.46l-1.48-25.69v-.02c0-.7-.03-1.41-.08-2.13l.08-.59,3.01-22.07Zm-5.03,50.51c0,11.82-9.84,21.41-21.77,20.95-11.35-.43-20.16-10.11-20.16-21.47l1.52-26.18-.25-1.88-.25-1.89-.13-.98-.77-5.84-1.33-9.97-.1-.81,9.89-1.9,5.77-1.11,4.86-.93V60.27c0,.97,.78,1.75,1.74,1.75s1.75-.78,1.75-1.75V27.53l4.94,.97,5.78,1.15,9.8,1.95-.03,.22-1.39,10.44-.77,5.83-.16,1.2-.23,1.68-.25,1.87,1.52,26.7Z"/>
</svg>