<?xml version="1.0" encoding="UTF-8"?>
<svg id="Layer_1" data-name="Layer 1" xmlns="http://www.w3.org/2000/svg" viewBox="0 0 128 128">
  <defs>
    <style>
      .cls-1 {
        fill: #fff;
      }
    </style>
  </defs>
  <path class="cls-1" d="M108.67,50.71c-8.06-18.14-17.05-24.03-29.3-19.07-2.02,.78-3.88,2.02-5.27,3.72h-20.16c-1.4-1.71-3.1-2.95-5.27-3.72-12.25-4.96-21.24,.93-29.3,19.07-6.51,14.57-6.51,30.85-3.1,39.38,1.4,3.57,3.57,6.05,6.05,7.13,1.24,.62,2.64,.78,4.03,.78,7.29,0,14.42-7.44,19.07-15.19,1.55-2.64,4.34-4.19,7.44-4.34h22.02c3.1,0,5.89,1.55,7.44,4.34,5.58,9.3,14.57,17.98,23.26,14.42,2.48-1.09,4.5-3.57,6.05-7.13,3.57-8.53,3.57-24.81-2.95-39.38Zm.47,38.29c-1.09,2.79-2.64,4.81-4.34,5.58-6.82,2.79-14.73-5.27-19.53-13.18-2.17-3.57-5.89-5.74-9.92-5.74h-22.17c-4.03,0-7.91,2.17-9.92,5.74-4.81,7.91-12.71,16.12-19.53,13.18-1.71-.78-3.26-2.64-4.34-5.58-3.1-7.91-3.1-23.1,3.1-37.05,6.67-14.88,12.87-19.07,18.76-19.07,2.33,0,4.65,.62,6.82,1.55,1.71,.62,3.26,1.86,4.34,3.41,.31,.46,.78,.62,1.24,.62h21.4c.47,0,.93-.16,1.24-.62,1.09-1.55,2.64-2.64,4.34-3.41,7.75-3.1,16.28-3.1,25.43,17.52,6.2,13.8,6.2,29.15,3.1,37.05Z"/>
  <path class="cls-1" d="M86.96,41.66c-2.64,0-4.81,2.17-4.81,4.81s2.17,4.81,4.81,4.81,4.81-2.17,4.81-4.81-2.17-4.81-4.81-4.81Z"/>
  <path class="cls-1" d="M86.96,61.78c-2.64,0-4.81,2.17-4.81,4.81s2.17,4.81,4.81,4.81,4.81-2.17,4.81-4.81-2.17-4.81-4.81-4.81Z"/>
  <path class="cls-1" d="M97.09,51.64c-2.64,0-4.81,2.17-4.81,4.81s2.17,4.81,4.81,4.81,4.81-2.17,4.81-4.81-2.17-4.81-4.81-4.81Z"/>
  <path class="cls-1" d="M76.83,51.64c-2.64,0-4.81,2.17-4.81,4.81s2.17,4.81,4.81,4.81c2.64,.16,4.81-2.02,4.81-4.81,0-2.64-2.17-4.81-4.81-4.81Z"/>
  <path class="cls-1" d="M52.96,54.19h-7.26s0,0,0,0v-7.26c0-1.78-2.06-3.05-4-1.99-.85,.47-1.09,1.66-1.09,2.64v6.62h-7.33c-1.29,0-2.33,1.05-2.33,2.33h0c0,1.29,1.05,2.34,2.33,2.34h7.26s0,0,0,0v7.26c0,1.29,1.05,2.34,2.34,2.34h0c1.29,0,2.33-1.05,2.33-2.33v-7.26s0,0,0,0h7.75c1.29,0,2.33-1.05,2.33-2.33h0c0-1.29-1.05-2.34-2.34-2.34Z"/>
</svg>