<?xml version="1.0" encoding="UTF-8"?>
<svg id="Layer_1" data-name="Layer 1" xmlns="http://www.w3.org/2000/svg" viewBox="0 0 128 128">
  <defs>
    <style>
      .cls-1 {
        fill: #fff;
        fill-rule: evenodd;
      }
    </style>
  </defs>
  <path class="cls-1" d="M102.34,44.76c0-.38-.15-.75-.42-1.02-.27-.26-.64-.42-1.02-.42s-.75,.15-1.02,.42l-7.94,7.94c-.97-.82-4.72-3.76-10.34-3.76-3.76,0-7.43,1.34-10.33,3.76-2.66-2.66-5.32-5.32-7.98-7.98-.27-.26-.64-.42-1.02-.42s-.75,.15-1.02,.42-.43,.64-.43,1.02,.15,.75,.43,1.02l7.98,7.98c-2.44,2.91-3.77,6.56-3.77,10.34s1.34,7.43,3.77,10.33c-2.62,2.62-5.25,5.25-7.87,7.87-.27,.26-.43,.63-.43,1.02s.15,.75,.43,1.01c.26,.27,.63,.43,1.02,.43s.75-.15,1.02-.43c2.62-2.62,5.25-5.25,7.87-7.87,2.9,2.44,6.56,3.77,10.33,3.77s7.43-1.34,10.34-3.77c2.62,2.62,5.23,5.23,7.85,7.85,.27,.27,.64,.43,1.02,.43s.75-.15,1.02-.43c.27-.26,.42-.63,.42-1.01s-.15-.75-.42-1.02c-2.62-2.62-5.23-5.23-7.85-7.85,2.44-2.91,3.77-6.57,3.77-10.33s-1.34-7.43-3.77-10.34l7.94-7.94c.27-.27,.42-.63,.42-1.02Zm-20.73,6.04c3.01,0,5.94,1.05,8.3,2.94l-3.94,3.94c-1.29-.88-2.79-1.35-4.35-1.35s-3.05,.46-4.34,1.35l-3.95-3.94c2.35-1.89,5.28-2.94,8.29-2.94Zm4.86,13.26c0,2.68-2.18,4.86-4.86,4.86s-4.85-2.18-4.85-4.86,2.18-4.86,4.85-4.86,4.86,2.18,4.86,4.86Zm-18.12,0c0-3.01,1.04-5.94,2.93-8.29l3.94,3.94c-.89,1.29-1.35,2.79-1.35,4.35s.46,3.05,1.35,4.35l-3.94,3.94c-1.89-2.35-2.93-5.28-2.93-8.29Zm13.25,13.25c-3.01,0-5.94-1.04-8.29-2.93l3.95-3.94c1.29,.89,2.79,1.35,4.34,1.35s3.06-.46,4.35-1.35l3.94,3.94c-2.35,1.89-5.29,2.93-8.3,2.93Zm13.26-13.25c0,3.01-1.05,5.94-2.94,8.29l-3.94-3.94c.88-1.3,1.35-2.79,1.35-4.35s-.47-3.06-1.35-4.35l3.94-3.94c1.89,2.35,2.94,5.28,2.94,8.29Z"/>
  <path class="cls-1" d="M44.02,53.74c-.98,0-1.78,.8-1.78,1.78v3.38c0,.98,.8,1.78,1.78,1.78s1.78-.8,1.78-1.78v-3.38c0-.98-.8-1.78-1.78-1.78Z"/>
  <path class="cls-1" d="M36,53.74c-.98,0-1.78,.8-1.78,1.78v3.38c0,.98,.8,1.78,1.78,1.78s1.78-.8,1.78-1.78v-3.38c0-.98-.8-1.78-1.78-1.78Z"/>
  <path class="cls-1" d="M32.9,47.87l-5.27,6.59v11.38h24.77v-11.38l-5.27-6.59h-14.22Zm16.57,15.04H30.55v-7.42l3.75-4.7h11.41l3.75,4.7v7.42Z"/>
  <path class="cls-1" d="M109.76,33.85H18.24c-2.34,0-4.24,1.9-4.24,4.24v51.81c0,2.34,1.9,4.24,4.24,4.24H109.76c2.34,0,4.24-1.9,4.24-4.24V38.09c0-2.34-1.9-4.24-4.24-4.24Zm.82,54.89c0,1.09-.89,1.99-1.99,1.99H19.41c-1.09,0-1.99-.89-1.99-1.99V39.26c0-1.09,.89-1.99,1.99-1.99H108.59c1.09,0,1.99,.89,1.99,1.99v49.48Z"/>
</svg>