<?xml version="1.0" encoding="UTF-8"?>
<svg id="Layer_1" data-name="Layer 1" xmlns="http://www.w3.org/2000/svg" viewBox="0 0 128 128">
  <defs>
    <style>
      .cls-1 {
        fill: #fff;
      }
    </style>
  </defs>
  <path class="cls-1" d="M90.08,14H37.77c-5.14,0-9.32,4.18-9.32,9.32V104.68c0,5.14,4.18,9.32,9.32,9.32h52.47c5.14,0,9.32-4.18,9.32-9.32V23.32c0-5.14-4.25-9.32-9.48-9.32Zm6.25,90.68c0,3.36-2.74,6.1-6.1,6.1H37.77c-3.36,0-6.1-2.74-6.1-6.1V23.32c0-3.36,2.74-6.1,6.1-6.1h52.32c3.45,0,6.25,2.74,6.25,6.1V104.68Z"/>
  <circle class="cls-1" cx="64" cy="73.22" r="7.26"/>
  <path class="cls-1" d="M85.97,99.97H42.03c-1.03,0-1.86,.83-1.86,1.86s.83,1.86,1.86,1.86h43.93c1.03,0,1.86-.83,1.86-1.86s-.83-1.86-1.86-1.86Z"/>
  <path class="cls-1" d="M64,47.98c-6.67,0-12.09-5.5-12.09-12.26s5.43-12.09,12.09-12.09,12.09,5.43,12.09,12.09-5.43,12.26-12.09,12.26Zm0-21.05c-4.76,0-8.79,4.02-8.79,8.79s3.94,8.95,8.79,8.95,8.79-4.02,8.79-8.95-4.02-8.79-8.79-8.79Z"/>
  <path class="cls-1" d="M64,93.27c-11.05,0-20.05-8.99-20.05-20.05s8.99-20.05,20.05-20.05,20.05,8.99,20.05,20.05-8.99,20.05-20.05,20.05Zm0-37.16c-9.44,0-17.11,7.68-17.11,17.11s7.68,17.11,17.11,17.11,17.11-7.68,17.11-17.11-7.68-17.11-17.11-17.11Z"/>
</svg>