<?xml version="1.0" encoding="UTF-8"?>
<svg id="Layer_1" data-name="Layer 1" xmlns="http://www.w3.org/2000/svg" viewBox="0 0 128 128">
  <defs>
    <style>
      .cls-1 {
        fill: #fff;
      }
    </style>
  </defs>
  <path class="cls-1" d="M107.64,23.09h-13.31c-.95,0-1.76,.63-2.08,1.61-.13,.45-.34,.77-.66,1.05-.56,.49-1.27,.77-1.98,.77H41.06c-.89,0-1.58-.42-1.99-.77-.26-.23-.53-.54-.76-1.16-.32-.9-1.16-1.5-2.09-1.5h-15.85c-3.51,0-6.37,2.87-6.37,6.37V98.53c0,.82,.16,1.67,.48,2.43l.04,.12,.02,.02c.2,.43,.48,.88,.83,1.35,1.24,1.56,3.06,2.46,5.01,2.46h15.85c.93,0,1.77-.6,2.09-1.48,.23-.64,.5-.95,.74-1.17,.42-.35,1.11-.78,2-.78h48.55c.71,0,1.41,.27,1.98,.76,.33,.29,.53,.6,.66,1.07,.32,.98,1.13,1.61,2.08,1.61h13.31c1.63,0,3.2-.64,4.49-1.86,.06-.06,.1-.12,.11-.12,1.13-1.22,1.76-2.77,1.76-4.39V29.46c0-3.5-2.85-6.36-6.36-6.37Zm3.03,75.44c0,.86-.38,1.69-1.05,2.28-.57,.49-1.26,.77-1.99,.77h-12.42c-1.09-2.08-3.27-3.42-5.61-3.42H41.06c-2.38,0-4.52,1.3-5.62,3.42h-15.07c-.42,0-.81-.09-1.18-.25-1.12-.48-1.85-1.57-1.87-2.8V29.46c.02-1.68,1.39-3.03,3.05-3.03h15.07c1.1,2.13,3.24,3.41,5.62,3.41h48.55c2.34,0,4.52-1.33,5.61-3.41h12.42c1.68,0,3.03,1.36,3.03,3.03V98.53Z"/>
  <path class="cls-1" d="M52.29,63.51c-.14-.14-.2-.21-.34-.36-2.44,0-8.46,.04-12.8,.85-1.68,.34-2.86,2.02-2.69,3.71,.32,2.68,1.08,5.28,2.17,7.72,1.45,3.21,5.71,3.71,7.91,.97,2.25-2.79,5.06-4.87,7.42-6-1.08-2.15-1.77-4.31-1.67-6.88Z"/>
  <path class="cls-1" d="M64.87,52.24s.02,0,.04-.02c0-2.19,0-8.59-.85-13.15-.34-1.68-2.02-2.86-3.7-2.69-2.69,.33-5.3,1.09-7.74,2.18-3.21,1.46-3.74,5.73-1,7.94,2.86,2.3,4.95,5.16,6.2,7.56,2.08-1.32,4.59-2.01,7.04-1.83Z"/>
  <path class="cls-1" d="M69.69,64c0-3.11-2.53-5.65-5.65-5.65s-5.64,2.53-5.64,5.65,2.53,5.65,5.64,5.65,5.65-2.53,5.65-5.65Z"/>
  <path class="cls-1" d="M76.5,81.49c-2.86-2.3-4.95-5.16-6.2-7.56-2.07,1.31-4.35,2-7.08,1.83,0,2.16,0,8.59,.84,13.15,.34,1.68,2.02,2.87,3.71,2.7,2.69-.33,5.3-1.09,7.74-2.19,3.21-1.45,3.74-5.72,1-7.93Z"/>
  <path class="cls-1" d="M89.32,52.58c-1.44-3.21-5.7-3.71-7.9-.97-2.25,2.79-5.06,4.86-7.43,6,1.33,2.08,2.01,4.59,1.83,7.04l.03,.03c2.18,0,8.58,0,13.14-.84,1.69-.17,2.86-1.85,2.52-3.54-.33-2.68-1.09-5.29-2.18-7.72Z"/>
</svg>