<?xml version="1.0" encoding="UTF-8"?>
<svg id="Layer_1" data-name="Layer 1" xmlns="http://www.w3.org/2000/svg" viewBox="0 0 128 128">
  <defs>
    <style>
      .cls-1 {
        fill: #fff;
      }
    </style>
  </defs>
  <g>
    <path class="cls-1" d="M58.09,70.93c0-3.23-2.63-5.85-5.86-5.85s-5.85,2.62-5.85,5.85,2.63,5.85,5.85,5.85,5.86-2.62,5.86-5.85Z"/>
    <path class="cls-1" d="M41.56,70.48c-.13-.13-.18-.19-.31-.33-2.22,0-7.68,.04-11.62,.77-1.53,.3-2.59,1.83-2.44,3.36,.29,2.43,.98,4.8,1.97,7.01,1.31,2.91,5.18,3.36,7.18,.88,2.04-2.53,4.59-4.42,6.73-5.44-.98-1.95-1.61-3.92-1.51-6.25Z"/>
    <path class="cls-1" d="M47.35,61.71c.05-.18,.07-.26,.13-.43-1.12-1.92-3.87-6.63-6.48-9.68-1.03-1.17-2.89-1.33-4.13-.43-1.96,1.47-3.67,3.24-5.08,5.21-1.87,2.59-.32,6.17,2.83,6.66,3.21,.5,6.12,1.76,8.08,3.11,1.2-1.82,2.59-3.35,4.65-4.43Z"/>
    <path class="cls-1" d="M57.85,62.34c.18-.05,.26-.06,.44-.11,1.1-1.92,3.8-6.67,5.14-10.45,.5-1.48-.29-3.16-1.69-3.8-2.25-.97-4.64-1.55-7.05-1.8-3.18-.32-5.5,2.81-4.35,5.78,1.17,3.03,1.53,6.18,1.35,8.55,2.18,.13,4.2,.56,6.17,1.81Z"/>
    <path class="cls-1" d="M56.76,80.52c-.05,.18-.07,.26-.13,.43,1.12,1.92,3.87,6.63,6.48,9.68,1.03,1.17,2.89,1.33,4.13,.43,1.96-1.47,3.67-3.24,5.08-5.21,1.87-2.59,.32-6.17-2.83-6.66-3.21-.5-6.12-1.76-8.08-3.11-1.2,1.82-2.59,3.35-4.65,4.43Z"/>
    <path class="cls-1" d="M46.26,79.89c-.18,.05-.26,.06-.44,.11-1.1,1.92-3.8,6.67-5.14,10.45-.5,1.48,.29,3.16,1.69,3.8,2.25,.97,4.64,1.55,7.05,1.8,3.18,.32,5.5-2.81,4.35-5.78-1.17-3.03-1.53-6.18-1.35-8.55-2.18-.13-4.2-.56-6.17-1.81Z"/>
    <path class="cls-1" d="M75.17,60.56c-1.31-2.91-5.17-3.36-7.17-.88-2.04,2.53-4.59,4.41-6.74,5.44,1.21,1.89,1.83,4.16,1.66,6.39l.02,.02c1.98,0,7.79,0,11.92-.76,1.53-.15,2.59-1.68,2.29-3.21-.3-2.43-.98-4.8-1.98-7.01Z"/>
  </g>
  <path class="cls-1" d="M52.28,109.33c-.39,0-.94-.03-1.74-.07-9.75-.52-18.23-4.33-25.2-11.34-3.97-3.97-6.63-7.98-8.65-13-1.73-4.42-2.48-7.97-2.64-12.66-.21-4.85,.32-8.58,1.88-13.3,4.14-12.45,14.59-22.17,27.29-25.37,4.51-1.12,6.2-1.19,25.79-1.19l16.86-.08c1.38,0,2.71-.59,3.65-1.62,.94-1.04,1.39-2.39,1.25-3.8-.24-2.49-2.49-4.43-5.11-4.43h-3.08c-1.05,0-1.89-.85-1.89-1.9s.85-1.89,1.89-1.89h3c4.75,0,8.7,3.57,9,8.13,.16,2.44-.67,4.76-2.34,6.54-1.64,1.75-3.96,2.76-6.36,2.76l-27.21-.03c-7.96,.03-9.87,.11-11.26,.33-13.31,1.96-23.78,10.66-28.01,23.28-2.33,6.99-2.33,15.35,0,22.34,2.88,8.64,8.83,15.65,16.76,19.74,4.57,2.37,8.81,3.53,14.15,3.88,2.75,.17,2.94,.21,3.41,.77,.66,.79,.62,1.72-.09,2.43-.38,.39-.53,.5-1.33,.5Z"/>
  <path class="cls-1" d="M71.02,47.42c-.98,0-1.78-.8-1.78-1.78s.8-1.78,1.78-1.78h5.56l12.79-.11h2.4s4.48-.05,4.48-.05c2.67-.02,5.33-.05,7.79-.06,.81-.02,1.43-.04,1.91-.06,2.63-.37,4.47-2.73,4.22-5.36-.02-.22-.07-.42-.12-.63-.56-2.22-2.65-3.8-4.99-3.8h-3.08c-1.05,0-1.9-.85-1.9-1.9s.85-1.89,1.9-1.89h2.99c4.75,0,8.7,3.57,9,8.13,.02,.27,.02,.55,0,.81,.02,1.14-.23,2.21-.74,3.27-1.4,3.17-4.52,5.21-7.97,5.21h-8.95c-2.05,0-4.5,0-7.45,0h-17.87Z"/>
</svg>