<svg xmlns="http://www.w3.org/2000/svg" width="188.221" height="33.038" viewBox="0 0 188.221 33.038">
  <g id="Group_3" data-name="Group 3" transform="translate(-845 -97)">
    <g id="Group_2" data-name="Group 2" transform="translate(845 97)">
      <path id="Path_1" data-name="Path 1" d="M46.6,5.084s-6.985,3.041-13.59,17.962C26.354,38.109,3.879,35.733.553,18.674c0,0-1.949-8.7,1.473-13.495A11.2,11.2,0,0,0,1.5,11.737S4.354,2.281,12.86,0A14.925,14.925,0,0,0,5.355,13.582a16.431,16.431,0,0,0,3.437,9.192c2.366,3.068,6.475,6.5,12.573,5.309,0,0,4.609-.523,10.121-8.6,5.559-8.03,10.121-12.973,15.11-14.4" transform="translate(0)" fill="#e1251b"/>
      <path id="Path_2" data-name="Path 2" d="M13.385,22.405S3.354,9.167,17.043,1.586c0,0,8.03-3.849,14.731,2.186,0,0-9.171-3.137-15.681,3.088C9.583,13.132,12.1,18.794,13.385,22.405" transform="translate(-2.948 -0.113)" fill="#e1251b"/>
      <path id="Path_3" data-name="Path 3" d="M25.237,31.665s-12.735-2.994-7.6-11.69c0,0,2.47-3.373,2.47-4.846a20.775,20.775,0,0,1,.333,8.648c0,.047-1.093,3.9,4.8,7.888" transform="translate(-4.918 -4.532)" fill="#e1251b"/>
    </g>
    <g id="Group_1" data-name="Group 1" transform="translate(894.17 105.073)">
      <path id="Path_4" data-name="Path 4" d="M89.13,17.477c.174-3.315-1.57-5.278-5.19-5.889H71.945L70.2,28.9h5.19l.524-5.409h4.579l2.356,5.452h5.844l-2.442-5.713a6.95,6.95,0,0,0,2.879-5.758m-6.281,1.439H76.481l.305-3.01H83.2c1,.174,1.439.7,1.308,1.614a1.5,1.5,0,0,1-1.657,1.4" transform="translate(-70.2 -11.545)" fill="#fff"/>
      <path id="Path_5" data-name="Path 5" d="M112.154,11.526h-5.844c-3.707.131-5.889,2.006-6.412,5.54L98.72,28.842h4.8l.523-5.278,7.677.043-.524,5.278h4.58l1.177-11.864c.174-3.445-1.4-5.278-4.8-5.5m.131,6.281-.174,1.439h-7.676l.218-1.832a1.643,1.643,0,0,1,1.788-1.832h4.667q1.57.2,1.177,2.225" transform="translate(-78.744 -11.526)" fill="#fff"/>
      <path id="Path_6" data-name="Path 6" d="M125.995,36.353l0-.043h0Z" transform="translate(-86.914 -18.95)" fill="#fff"/>
      <path id="Path_7" data-name="Path 7" d="M143.27,11.569l-15.528-.043L126,28.886h4.75l1.222-12.431h3.751L134.5,28.886h4.361L140.13,16.5h2.311c1,0,1.4.611,1.134,1.919l-1.046,10.511h4.405l1.177-11.863q.328-5.627-4.841-5.5" transform="translate(-86.917 -11.526)" fill="#fff"/>
      <path id="Path_8" data-name="Path 8" d="M172.364,11.588H160.37L158.625,28.9h5.19l.523-5.409h7.153c3.576-.218,5.583-2.225,5.975-5.975s-1.308-5.758-5.1-5.932m.611,5.932a1.49,1.49,0,0,1-1.657,1.352l-6.412.044.305-3.01h6.412c1.046.174,1.483.7,1.352,1.614" transform="translate(-96.689 -11.545)" fill="#fff"/>
      <path id="Path_9" data-name="Path 9" d="M186.772,36.229l0-.043h0Z" transform="translate(-105.121 -18.913)" fill="#fff"/>
      <path id="Path_10" data-name="Path 10" d="M200.207,11.526h-5.844c-3.707.131-5.888,2.006-6.412,5.54L186.778,28.8h4.793l.523-5.278,7.677.044-.523,5.321h4.58l1.177-11.864c.174-3.445-1.4-5.278-4.8-5.5m.175,6.281-.175,1.439h-7.676l.217-1.832c-.043-1.178.567-1.789,1.789-1.832H199.2q1.57.2,1.178,2.225" transform="translate(-105.123 -11.526)" fill="#fff"/>
      <path id="Path_11" data-name="Path 11" d="M214.807,20.224c-.567,5.583.915,8.462,4.448,8.68h12.213l.959-9.6h-4.536l-.523,5.06h-6.586a1.48,1.48,0,0,1-1.222-1.308,14.338,14.338,0,0,1,1-6.412,1.92,1.92,0,0,1,1.7-.829h10.511l.436-4.231H221.305c-3.794.174-5.975,3.053-6.5,8.636" transform="translate(-113.484 -11.545)" fill="#fff"/>
      <path id="Path_12" data-name="Path 12" d="M242.461,20.286q-.786,8.309,4.448,8.636h12.213l.392-4.536H248.393c-.523-.088-.829-.524-.872-1.353v-.96l12.212.043.436-4.143H247.826l.436-1.484c.174-.48.741-.7,1.614-.654h10.511l.436-4.187H248.96c-3.794.219-5.975,3.1-6.5,8.636" transform="translate(-121.773 -11.563)" fill="#fff"/>
    </g>
  </g>
</svg>
