<svg xmlns="http://www.w3.org/2000/svg" width="87.413" height="15.344" viewBox="0 0 87.413 15.344">
  <g id="Group_3046" data-name="Group 3046" transform="translate(-845 -97)">
    <g id="Group_2" data-name="Group 2" transform="translate(845 97)">
      <path id="Path_2" data-name="Path 2" d="M11.487,10.607S6.828,4.459,13.186.938a6.468,6.468,0,0,1,6.841,1.015S15.768.5,12.745,3.388C9.721,6.3,10.891,8.93,11.487,10.607" transform="translate(-6.64 -0.254)" fill="#fff"/>
      <path id="Path_3" data-name="Path 3" d="M20.513,22.809s-5.914-1.39-3.531-5.429a6.685,6.685,0,0,0,1.147-2.251,9.648,9.648,0,0,1,.155,4.016c0,.022-.507,1.809,2.229,3.663" transform="translate(-11.076 -10.208)" fill="#fff"/>
    </g>
    <g id="Group_3045" data-name="Group 3045">
      <path id="Path_1" data-name="Path 1" d="M21.641,2.361S18.4,3.774,15.329,10.7C12.24,17.7,1.8,16.6.257,8.673c0,0-.9-4.038.684-6.267A5.2,5.2,0,0,0,.7,5.451S2.022,1.059,5.973,0A6.931,6.931,0,0,0,2.487,6.308a7.631,7.631,0,0,0,1.6,4.269,5.789,5.789,0,0,0,5.839,2.465s2.14-.243,4.7-3.994c2.582-3.729,4.7-6.025,7.018-6.687" transform="translate(845 97)" fill="#fff"/>
      <g id="Group_1" data-name="Group 1" transform="translate(867.836 100.749)">
        <path id="Path_4" data-name="Path 4" d="M78.991,14.323c.081-1.54-.729-2.451-2.41-2.735H71.01L70.2,19.63h2.41l.243-2.512h2.127l1.094,2.532h2.714L77.654,17a3.228,3.228,0,0,0,1.337-2.674m-2.917.668H73.117l.142-1.4h2.978c.466.081.668.324.608.749a.7.7,0,0,1-.77.648" transform="translate(-70.2 -11.568)" fill="#fff"/>
        <path id="Path_5" data-name="Path 5" d="M104.959,11.526h-2.714A2.792,2.792,0,0,0,99.267,14.1l-.547,5.469h2.228l.243-2.451,3.565.02-.243,2.451h2.127l.547-5.51a2.13,2.13,0,0,0-2.228-2.552m.061,2.917-.081.668h-3.565l.1-.851a.763.763,0,0,1,.83-.851h2.167q.729.091.547,1.033" transform="translate(-89.443 -11.526)" fill="#fff"/>
        <path id="Path_6" data-name="Path 6" d="M125.995,36.33l0-.02h0Z" transform="translate(-107.845 -28.248)" fill="#fff"/>
        <path id="Path_7" data-name="Path 7" d="M134.021,11.546l-7.211-.02L126,19.588h2.206l.567-5.773h1.742l-.567,5.773h2.025l.588-5.753h1.073c.466,0,.648.284.527.891l-.486,4.882h2.046l.547-5.509q.152-2.613-2.248-2.553" transform="translate(-107.85 -11.526)" fill="#fff"/>
        <path id="Path_8" data-name="Path 8" d="M165.006,11.588h-5.57l-.81,8.042h2.41l.243-2.512H164.6a2.74,2.74,0,0,0,2.775-2.775,2.2,2.2,0,0,0-2.37-2.755m.284,2.755a.692.692,0,0,1-.77.628l-2.978.02.142-1.4h2.978c.486.081.689.324.628.749" transform="translate(-129.861 -11.568)" fill="#fff"/>
        <path id="Path_9" data-name="Path 9" d="M186.772,36.206l0-.02h0Z" transform="translate(-148.852 -28.164)" fill="#fff"/>
        <path id="Path_10" data-name="Path 10" d="M193.015,11.526H190.3a2.792,2.792,0,0,0-2.978,2.573l-.545,5.449H189l.243-2.451,3.565.02-.243,2.471H194.7l.547-5.51a2.13,2.13,0,0,0-2.228-2.552m.081,2.917-.081.668H189.45l.1-.851c-.02-.547.263-.831.831-.851h2.167q.729.091.547,1.033" transform="translate(-148.856 -11.526)" fill="#fff"/>
        <path id="Path_11" data-name="Path 11" d="M214.744,15.6c-.263,2.593.425,3.93,2.066,4.031h5.672l.445-4.457H220.82l-.243,2.35h-3.059a.688.688,0,0,1-.567-.608,6.659,6.659,0,0,1,.466-2.978.892.892,0,0,1,.79-.385h4.882l.2-1.965h-5.53c-1.762.081-2.775,1.418-3.018,4.011" transform="translate(-167.688 -11.568)" fill="#fff"/>
        <path id="Path_12" data-name="Path 12" d="M242.406,15.661q-.365,3.859,2.066,4.011h5.672l.182-2.107h-5.165c-.243-.041-.385-.243-.4-.628v-.446l5.671.02.2-1.924H244.9l.2-.689c.081-.223.344-.324.749-.3h4.882l.2-1.945h-5.51c-1.762.1-2.775,1.438-3.018,4.011" transform="translate(-186.357 -11.61)" fill="#fff"/>
      </g>
    </g>
  </g>
</svg>
